<svg xmlns="http://www.w3.org/2000/svg" viewBox="0 0 256 256" role="img" aria-labelledby="title">
  <title id="title">Idle Dyson Swarm robot</title>
  <g fill="#fff">
    <circle cx="128" cy="35" r="14"/>
    <rect x="124" y="47" width="8" height="20" rx="4"/>
    <rect x="52" y="115" width="15" height="47" rx="7"/>
    <rect x="189" y="115" width="15" height="47" rx="7"/>
    <path d="M82 74h92a24 24 0 0 1 24 24v77a34 34 0 0 1-34 34H92a34 34 0 0 1-34-34V98a24 24 0 0 1 24-24Z"/>
    <path d="M92 63h72a18 18 0 0 1 18 18v5H74v-5a18 18 0 0 1 18-18Z"/>
    <rect x="80" y="204" width="96" height="18"/>
  </g>
  <g fill="#2f1738">
    <circle cx="98" cy="125" r="13"/>
    <circle cx="158" cy="125" r="13"/>
  </g>
  <path d="M103 166q25 15 50 0" fill="none" stroke="#2f1738" stroke-width="8" stroke-linecap="round"/>
</svg>
